<?xml version="1.0" standalone="no"?><!DOCTYPE svg PUBLIC "-//W3C//DTD SVG 1.1//EN" "http://www.w3.org/Graphics/SVG/1.1/DTD/svg11.dtd"><svg class="icon" width="200px" height="200.00px" viewBox="0 0 1024 1024" version="1.1" xmlns="http://www.w3.org/2000/svg"><path fill="#2c2c2c" d="M725.333333 650.453333v293.205334a21.333333 21.333333 0 0 1-32.298666 18.304L512 853.333333l-181.034667 108.629334a21.333333 21.333333 0 0 1-32.298666-18.346667v-293.12a341.333333 341.333333 0 1 1 426.666666 0zM512 640a256 256 0 1 0 0-512 256 256 0 0 0 0 512z m0-85.333333a170.666667 170.666667 0 1 1 0-341.333334 170.666667 170.666667 0 0 1 0 341.333334z" /></svg>