<?xml version="1.0" standalone="no"?><!DOCTYPE svg PUBLIC "-//W3C//DTD SVG 1.1//EN" "http://www.w3.org/Graphics/SVG/1.1/DTD/svg11.dtd"><svg class="icon" width="200px" height="200.00px" viewBox="0 0 1024 1024" version="1.1" xmlns="http://www.w3.org/2000/svg"><path fill="#2c2c2c" d="M896 384v511.701333A42.666667 42.666667 0 0 1 853.632 938.666667H170.368A42.368 42.368 0 0 1 128 896.341333V127.658667C128 104.746667 147.072 85.333333 170.581333 85.333333H597.333333v256a42.666667 42.666667 0 0 0 42.666667 42.666667h256z m0-85.333333h-213.333333V85.461333L896 298.666667zM341.333333 298.666667v85.333333h128V298.666667H341.333333z m0 170.666666v85.333334h341.333334v-85.333334H341.333333z m0 170.666667v85.333333h341.333334v-85.333333H341.333333z" /></svg>