<?xml version="1.0" standalone="no"?><!DOCTYPE svg PUBLIC "-//W3C//DTD SVG 1.1//EN" "http://www.w3.org/Graphics/SVG/1.1/DTD/svg11.dtd"><svg class="icon" width="200px" height="200.00px" viewBox="0 0 1024 1024" version="1.1" xmlns="http://www.w3.org/2000/svg"><path fill="#2c2c2c" d="M128 128h768a42.666667 42.666667 0 0 1 42.666667 42.666667v682.666666a42.666667 42.666667 0 0 1-42.666667 42.666667H128a42.666667 42.666667 0 0 1-42.666667-42.666667V170.666667a42.666667 42.666667 0 0 1 42.666667-42.666667z m85.333333 170.666667v85.333333h85.333334V298.666667H213.333333z m0 170.666666v85.333334h85.333334v-85.333334H213.333333z m0 170.666667v85.333333h597.333334v-85.333333H213.333333z m170.666667-170.666667v85.333334h85.333333v-85.333334H384z m0-170.666666v85.333333h85.333333V298.666667H384z m170.666667 0v85.333333h85.333333V298.666667h-85.333333z m170.666666 0v85.333333h85.333334V298.666667h-85.333334z m-170.666666 170.666666v85.333334h85.333333v-85.333334h-85.333333z m170.666666 0v85.333334h85.333334v-85.333334h-85.333334z" /></svg>