<?xml version="1.0" standalone="no"?><!DOCTYPE svg PUBLIC "-//W3C//DTD SVG 1.1//EN" "http://www.w3.org/Graphics/SVG/1.1/DTD/svg11.dtd"><svg class="icon" width="200px" height="200.00px" viewBox="0 0 1024 1024" version="1.1" xmlns="http://www.w3.org/2000/svg"><path fill="#2c2c2c" d="M128 128h768a42.666667 42.666667 0 0 1 42.666667 42.666667v682.666666a42.666667 42.666667 0 0 1-42.666667 42.666667H128a42.666667 42.666667 0 0 1-42.666667-42.666667V170.666667a42.666667 42.666667 0 0 1 42.666667-42.666667z m426.666667 426.666667v-42.666667h128v-85.333333h-110.336l90.538666-90.496-60.373333-60.373334L512 366.336 421.504 275.797333 361.130667 336.213333 451.669333 426.666667H341.333333v85.333333h128v42.666667H341.333333v85.333333h128v85.333333h85.333334v-85.333333h128v-85.333333h-128z" /></svg>