<?xml version="1.0" standalone="no"?><!DOCTYPE svg PUBLIC "-//W3C//DTD SVG 1.1//EN" "http://www.w3.org/Graphics/SVG/1.1/DTD/svg11.dtd"><svg class="icon" width="200px" height="200.00px" viewBox="0 0 1024 1024" version="1.1" xmlns="http://www.w3.org/2000/svg"><path fill="#2c2c2c" d="M227.413333 679.637333A557.397333 557.397333 0 0 1 213.333333 554.666667c0-217.088 123.861333-402.602667 298.666667-477.098667C686.805333 152.064 810.666667 337.578667 810.666667 554.666667c0 43.093333-4.864 84.949333-14.08 124.970666l86.186666 76.629334a21.333333 21.333333 0 0 1 4.138667 26.88l-104.874667 174.762666a21.333333 21.333333 0 0 1-33.365333 4.096l-96.170667-96.170666a42.666667 42.666667 0 0 0-30.165333-12.501334H401.664a42.666667 42.666667 0 0 0-30.165333 12.501334l-96.170667 96.170666a21.333333 21.333333 0 0 1-33.365333-4.096l-104.874667-174.72a21.333333 21.333333 0 0 1 4.138667-26.922666l86.186666-76.629334zM512 554.666667a85.333333 85.333333 0 1 0 0-170.666667 85.333333 85.333333 0 0 0 0 170.666667z" /></svg>