<?xml version="1.0" encoding="utf-8"?>
<!-- Generator: Adobe Illustrator 23.0.1, SVG Export Plug-In . SVG Version: 6.00 Build 0)  -->
<svg version="1.1" id="图层_1" xmlns="http://www.w3.org/2000/svg" xmlns:xlink="http://www.w3.org/1999/xlink" x="0px" y="0px"
	 viewBox="0 0 16 16" style="enable-background:new 0 0 16 16;" xml:space="preserve">
<style type="text/css">
	.st0{fill:#CACBCE;}
</style>
<path class="st0" d="M10.8,13c0.3,0.3,0.8,0.3,1.1,0l1.2-1.2c0.3-0.3,0.3-0.8,0-1.1L11,8.7c-0.3-0.3-0.8-0.3-1.1,0L8.7,9.9
	c-0.3,0.3-0.3,0.8,0,1.1L10.8,13z M9.8,14L7.7,12c-0.9-0.9-0.9-2.2,0-3.1l1.2-1.2c0.9-0.9,2.2-0.9,3.1,0L14,9.8
	c0.9,0.9,0.9,2.2,0,3.1L12.9,14C12,14.9,10.6,14.9,9.8,14z"/>
<path id="矩形-copy" class="st0" d="M4.6,6.8c0.3,0.3,0.8,0.3,1.1,0l1.2-1.2c0.3-0.3,0.3-0.8,0-1.1L4.8,2.5C4.5,2.2,4,2.2,3.7,2.5
	L2.5,3.7C2.2,4,2.2,4.5,2.5,4.8L4.6,6.8z M3.6,7.8L1.5,5.8c-0.9-0.9-0.9-2.2,0-3.1l1.2-1.2c0.9-0.9,2.2-0.9,3.1,0l2.1,2.1
	c0.9,0.9,0.9,2.2,0,3.1L6.7,7.8C5.8,8.7,4.5,8.7,3.6,7.8z"/>
<path id="路径-10" class="st0" d="M10.6,9.8c0.3,0.3,0.3,0.7,0,1c-0.3,0.3-0.7,0.3-1,0L4.9,6.1c-0.3-0.3-0.3-0.7,0-1s0.7-0.3,1,0
	L10.6,9.8z"/>
</svg>
