<?xml version="1.0" encoding="utf-8"?>
<!-- Generator: Adobe Illustrator 23.0.1, SVG Export Plug-In . SVG Version: 6.00 Build 0)  -->
<svg version="1.1" id="图层_1" xmlns="http://www.w3.org/2000/svg" xmlns:xlink="http://www.w3.org/1999/xlink" x="0px" y="0px"
	 viewBox="0 0 28 28" style="enable-background:new 0 0 28 28;" xml:space="preserve">
<style type="text/css">
	.st0{fill:#FFFFFF;}
	.st1{fill:#2D303B;}
	.st2{fill:#EFF2FA;}
	.st3{fill:#5D81F9;}
	.st4{fill:#E4E8F3;}
</style>
<path id="路径" class="st0" d="M6.2,3.7c-0.6,0-1,0.4-1,1v18.7c0,0.6,0.4,1,1,1h15.7c0.6,0,1-0.4,1-1V8c0-0.1-0.1-0.3-0.2-0.4
	l-4.1-3.9c-0.1-0.1-0.2-0.1-0.3-0.1L6.2,3.7z"/>
<path id="矩形" class="st1" d="M6.5,4c-0.6,0-1,0.4-1,1v18c0,0.6,0.4,1,1,1h15c0.6,0,1-0.4,1-1V8c0-0.1-0.1-0.3-0.2-0.4l-3.9-3.5
	C18.4,4,18.2,4,18.1,4H6.5z M6.5,3h11.6c0.4,0,0.7,0.1,1,0.4L23,6.9c0.3,0.3,0.5,0.7,0.5,1.1v15c0,1.1-0.9,2-2,2h-15
	c-1.1,0-2-0.9-2-2V5C4.5,3.9,5.4,3,6.5,3z"/>
<polygon class="st2" points="7.3,8.6 7.3,11.3 21,11.3 21,8.6 "/>
<path class="st3" d="M7.5,9v2h13V9H7.5z M7.5,8h13c0.6,0,1,0.4,1,1v2c0,0.6-0.4,1-1,1h-13c-0.6,0-1-0.4-1-1V9C6.5,8.4,6.9,8,7.5,8z"
	/>
<polygon id="路径-5" class="st4" points="7.5,16 7.5,15 21.4,15 21.4,16 "/>
<polygon id="路径-5-copy" class="st4" points="7.5,20 7.5,19 21.4,19 21.4,20 "/>
</svg>
