<?xml version="1.0" standalone="no"?><!DOCTYPE svg PUBLIC "-//W3C//DTD SVG 1.1//EN" "http://www.w3.org/Graphics/SVG/1.1/DTD/svg11.dtd"><svg t="1572526802035" class="icon" viewBox="0 0 1024 1024" version="1.1" xmlns="http://www.w3.org/2000/svg" p-id="5048" xmlns:xlink="http://www.w3.org/1999/xlink" width="200" height="200"><defs><style type="text/css"></style></defs><path d="M163.84 102.4h245.76c24.576 0 40.96 16.384 40.96 40.96v245.76c0 24.576-16.384 40.96-40.96 40.96H163.84c-24.576 0-40.96-16.384-40.96-40.96v-245.76c0-24.576 16.384-40.96 40.96-40.96z m0 450.56h245.76c24.576 0 40.96 16.384 40.96 40.96v245.76c0 24.576-16.384 40.96-40.96 40.96H163.84c-24.576 0-40.96-16.384-40.96-40.96v-245.76c0-24.576 16.384-40.96 40.96-40.96z m450.56-450.56h245.76c24.576 0 40.96 16.384 40.96 40.96v245.76c0 24.576-16.384 40.96-40.96 40.96h-245.76c-24.576 0-40.96-16.384-40.96-40.96v-245.76c0-24.576 16.384-40.96 40.96-40.96z m0 450.56h245.76c24.576 0 40.96 16.384 40.96 40.96v245.76c0 24.576-16.384 40.96-40.96 40.96h-245.76c-24.576 0-40.96-16.384-40.96-40.96v-245.76c0-24.576 16.384-40.96 40.96-40.96z" fill="#5D81F9" p-id="5049"></path></svg>