<?xml version="1.0" standalone="no"?><!DOCTYPE svg PUBLIC "-//W3C//DTD SVG 1.1//EN" "http://www.w3.org/Graphics/SVG/1.1/DTD/svg11.dtd"><svg t="1572340596147" class="icon" viewBox="0 0 1024 1024" version="1.1" xmlns="http://www.w3.org/2000/svg" p-id="1934" xmlns:xlink="http://www.w3.org/1999/xlink" width="200" height="200"><defs><style type="text/css"></style></defs><path d="M277.1 327h470c8.3 0 15-6.7 15-15s-6.7-15-15-15h-470c-8.3 0-15 6.7-15 15s6.7 15 15 15zM747.1 496h-470c-8.3 0-15 6.7-15 15s6.7 15 15 15h470c8.3 0 15-6.7 15-15s-6.7-15-15-15zM547.1 697h-270c-8.3 0-15 6.7-15 15s6.7 15 15 15h270c8.3 0 15-6.7 15-15s-6.7-15-15-15z" fill="#333333" p-id="1935"></path></svg>