<?xml version="1.0" standalone="no"?><!DOCTYPE svg PUBLIC "-//W3C//DTD SVG 1.1//EN" "http://www.w3.org/Graphics/SVG/1.1/DTD/svg11.dtd"><svg t="1573127469189" class="icon" viewBox="0 0 1024 1024" version="1.1" xmlns="http://www.w3.org/2000/svg" p-id="5013" xmlns:xlink="http://www.w3.org/1999/xlink" width="200" height="200"><defs><style type="text/css"></style></defs><path d="M0 0v1024h1024V0H0z m727.04 711.68c5.12 5.12 0 20.48-10.24 20.48h-76.8c-5.12 0-10.24-5.12-15.36-10.24L512 578.56l-112.64 143.36c-5.12 5.12-10.24 10.24-15.36 10.24H302.08c-10.24 0-15.36-10.24-10.24-20.48L455.68 512 296.96 312.32c-5.12-5.12 0-20.48 10.24-20.48h76.8c5.12 0 10.24 5.12 15.36 10.24L512 445.44l112.64-143.36c5.12-5.12 10.24-10.24 15.36-10.24H716.8c10.24 0 15.36 10.24 10.24 20.48L568.32 512l158.72 199.68z" fill="#2D303B" opacity=".8" p-id="5014"></path></svg>