<?xml version="1.0" encoding="utf-8"?>
<!-- Generator: Adobe Illustrator 23.0.1, SVG Export Plug-In . SVG Version: 6.00 Build 0)  -->
<svg version="1.1" id="图层_1" xmlns="http://www.w3.org/2000/svg" xmlns:xlink="http://www.w3.org/1999/xlink" x="0px" y="0px"
	 viewBox="0 0 28 28" style="enable-background:new 0 0 28 28;" xml:space="preserve">
<style type="text/css">
	.st0{fill:#FFFFFF;}
	.st1{fill:#404040;}
	.st2{fill:#EFF2FA;}
	.st3{fill:#5D81F9;}
	.st4{fill:#E4E8F3;}
</style>
<path id="路径" class="st0" d="M4.8,5c-0.6,0-1,0.4-1,1v15.9c0,0.6,0.4,1,1,1h18.7c0.6,0,1-0.4,1-1L24.3,6.3c0-0.6-0.4-1-1-1
	L4.8,5z"/>
<path id="矩形" class="st1" d="M5,5.5c-0.6,0-1,0.4-1,1v15c0,0.6,0.4,1,1,1h18c0.6,0,1-0.4,1-1v-15c0-0.6-0.4-1-1-1H5z M5,4.5h18
	c1.1,0,2,0.9,2,2v15c0,1.1-0.9,2-2,2H5c-1.1,0-2-0.9-2-2v-15C3,5.4,3.9,4.5,5,4.5z"/>
<polygon class="st2" points="6.7,8.3 6.7,11.8 13.4,11.8 13.4,8.3 "/>
<path class="st3" d="M7,8.5v3h6v-3H7z M6,7.5h8v5H6V7.5z"/>
<path id="矩形-copy-13" class="st4" d="M15,8.5v3h6v-3H15z M14,7.5h8v5h-8V7.5z"/>
<polygon id="路径-8" class="st4" points="6,16 6,15 22,15 22,16 "/>
<polygon id="路径-8-copy" class="st4" points="6,19 6,18 22,18 22,19 "/>
</svg>
