<?xml version="1.0" encoding="utf-8"?>
<!-- Generator: Adobe Illustrator 23.0.1, SVG Export Plug-In . SVG Version: 6.00 Build 0)  -->
<svg version="1.1" id="图层_1" xmlns="http://www.w3.org/2000/svg" xmlns:xlink="http://www.w3.org/1999/xlink" x="0px" y="0px"
	 viewBox="0 0 28 28" style="enable-background:new 0 0 28 28;" xml:space="preserve">
<style type="text/css">
	.st0{fill-rule:evenodd;clip-rule:evenodd;fill:#EFF2FA;}
	.st1{fill:#2D303B;}
	.st2{fill:#5D81F9;}
</style>
<rect x="8" y="8" class="st0" width="12" height="12"/>
<path class="st1" d="M5,5.5c-0.6,0-1,0.4-1,1v15c0,0.6,0.4,1,1,1h18c0.6,0,1-0.4,1-1v-15c0-0.6-0.4-1-1-1H5z M5,4.5h18
	c1.1,0,2,0.9,2,2v15c0,1.1-0.9,2-2,2H5c-1.1,0-2-0.9-2-2v-15C3,5.4,3.9,4.5,5,4.5z"/>
<path class="st2" d="M8,8.5v11h12v-11H8z M7,7.5h14v13H7V7.5z"/>
<polygon id="路径-3" class="st2" points="12.1,7.5 13.1,7.5 13.1,20.5 12.1,20.5 "/>
</svg>
