<?xml version="1.0" encoding="utf-8"?>
<!-- Generator: Adobe Illustrator 23.0.1, SVG Export Plug-In . SVG Version: 6.00 Build 0)  -->
<svg version="1.1" id="图层_1" xmlns="http://www.w3.org/2000/svg" xmlns:xlink="http://www.w3.org/1999/xlink" x="0px" y="0px"
	 viewBox="0 0 28 28" style="enable-background:new 0 0 28 28;" xml:space="preserve">
<style type="text/css">
	.st0{fill-rule:evenodd;clip-rule:evenodd;fill:#2D303B;}
	.st1{fill:#5D81F9;}
</style>
<path id="A" class="st0" d="M10.4,2.9h1.2L18.9,21h-1.1l-2.3-5.7H6.4L4.1,21H3L10.4,2.9z M6.8,14.4h8.4L11,4h-0.1L6.8,14.4z"/>
<path id="A-Copy" class="st0" d="M20.1,8.1h1.3L26.6,21h-1.2l-1.5-3.8h-6.2L16.2,21H15L20.1,8.1z M18.1,16.2h5.5l-2.7-6.9h-0.1
	L18.1,16.2z"/>
<polygon id="路径-4" class="st1" points="5,23 5,22 16.1,22 16.1,23 "/>
<polygon id="路径-4-copy" class="st1" points="6,25 6,24 15.1,24 15.1,25 "/>
</svg>
