<?xml version="1.0" encoding="utf-8"?>
<!-- Generator: Adobe Illustrator 23.0.1, SVG Export Plug-In . SVG Version: 6.00 Build 0)  -->
<svg version="1.1" id="图层_1" xmlns="http://www.w3.org/2000/svg" xmlns:xlink="http://www.w3.org/1999/xlink" x="0px" y="0px"
	 viewBox="0 0 25 25" style="enable-background:new 0 0 25 25;" xml:space="preserve">
<style type="text/css">
	.st0{fill:#FFFFFF;}
	.st1{fill:#2D303B;}
</style>
<path id="合并形状" class="st0" d="M3.5,2h6c1.1,0,2,0.9,2,2v6c0,1.1-0.9,2-2,2h-6c-1.1,0-2-0.9-2-2V4C1.5,2.9,2.4,2,3.5,2z
	 M3.5,13h6c1.1,0,2,0.9,2,2v6c0,1.1-0.9,2-2,2h-6c-1.1,0-2-0.9-2-2v-6C1.5,13.9,2.4,13,3.5,13z M15.5,2h6c1.1,0,2,0.9,2,2v6
	c0,1.1-0.9,2-2,2h-6c-1.1,0-2-0.9-2-2V4C13.5,2.9,14.4,2,15.5,2z M15.5,13h6c1.1,0,2,0.9,2,2v6c0,1.1-0.9,2-2,2h-6c-1.1,0-2-0.9-2-2
	v-6C13.5,13.9,14.4,13,15.5,13z"/>
<path class="st1" d="M3.5,4v6h6V4H3.5z M3.5,2h6c1.1,0,2,0.9,2,2v6c0,1.1-0.9,2-2,2h-6c-1.1,0-2-0.9-2-2V4C1.5,2.9,2.4,2,3.5,2z
	 M3.5,15v6h6v-6H3.5z M3.5,13h6c1.1,0,2,0.9,2,2v6c0,1.1-0.9,2-2,2h-6c-1.1,0-2-0.9-2-2v-6C1.5,13.9,2.4,13,3.5,13z M15.5,4v6h6V4
	H15.5z M15.5,2h6c1.1,0,2,0.9,2,2v6c0,1.1-0.9,2-2,2h-6c-1.1,0-2-0.9-2-2V4C13.5,2.9,14.4,2,15.5,2z M15.5,15v6h6v-6H15.5z M15.5,13
	h6c1.1,0,2,0.9,2,2v6c0,1.1-0.9,2-2,2h-6c-1.1,0-2-0.9-2-2v-6C13.5,13.9,14.4,13,15.5,13z"/>
</svg>
