<?xml version="1.0" encoding="utf-8"?>
<!-- Generator: Adobe Illustrator 23.0.1, SVG Export Plug-In . SVG Version: 6.00 Build 0)  -->
<svg version="1.1" id="图层_1" xmlns="http://www.w3.org/2000/svg" xmlns:xlink="http://www.w3.org/1999/xlink" x="0px" y="0px"
	 viewBox="0 0 28 28" style="enable-background:new 0 0 28 28;" xml:space="preserve">
<style type="text/css">
	.st0{fill:#FFFFFF;}
	.st1{fill:#2D303B;}
	.st2{fill-rule:evenodd;clip-rule:evenodd;fill:#5D81F9;}
</style>
<path id="路径" class="st0" d="M1.6,6.2c-0.6,0-1,0.5-1,1L1,21c0,0.6,0.5,1,1,1l24.3,0c0.6,0,1-0.5,1-1V7.2c0-0.6-0.5-1-1-1H1.6z"
	/>
<path id="Rectangle-2" class="st1" d="M2,6.5c-0.6,0-1,0.5-1,1v12.9c0,0.6,0.5,1,1,1H26c0.6,0,1-0.5,1-1V7.5c0-0.6-0.5-1-1-1H2z
	 M2,5.5H26c1.1,0,2,0.9,2,2v12.9c0,1.1-0.9,2-2,2H2c-1.1,0-2-0.9-2-2V7.5C0,6.4,0.9,5.5,2,5.5z"/>
<path id="Button" class="st2" d="M3.5,11.1h2.3c0.5,0,0.9,0.1,1.2,0.4c0.3,0.2,0.4,0.5,0.4,0.9c0,0.3-0.1,0.5-0.2,0.7
	c-0.1,0.2-0.3,0.3-0.6,0.4c0.3,0.1,0.6,0.2,0.7,0.4c0.2,0.2,0.2,0.5,0.2,0.8c0,0.5-0.2,0.9-0.5,1.1c-0.3,0.2-0.7,0.3-1.2,0.3H3.5
	V11.1z M4.3,11.8v1.4h1.3c0.3,0,0.6-0.1,0.7-0.2c0.1-0.1,0.2-0.3,0.2-0.6c0-0.2-0.1-0.4-0.2-0.5c-0.2-0.1-0.4-0.2-0.7-0.2H4.3z
	 M4.3,13.9v1.6h1.4c0.3,0,0.6,0,0.7-0.1c0.2-0.1,0.3-0.3,0.3-0.6c0-0.3-0.1-0.5-0.2-0.6c-0.2-0.1-0.4-0.2-0.8-0.2H4.3z M8.3,12.5
	h0.8v2.2c0,0.3,0.1,0.5,0.2,0.6c0.1,0.1,0.3,0.2,0.6,0.2c0.2,0,0.3-0.1,0.5-0.2c0.2-0.2,0.3-0.4,0.3-0.6v-2.2h0.8v3.6h-0.8v-0.5
	c-0.3,0.4-0.7,0.6-1.1,0.6c-0.9,0-1.3-0.5-1.3-1.5V12.5z M13.5,11.3v1.2h0.8v0.7h-0.8v2c0,0.1,0,0.1,0.1,0.2c0,0,0.1,0.1,0.2,0.1
	h0.5v0.7h-0.6c-0.3,0-0.5-0.1-0.7-0.3c-0.1-0.2-0.2-0.4-0.2-0.7v-2H12v-0.7h0.7v-0.8L13.5,11.3z M16,11.3v1.2h0.8v0.7H16v2
	c0,0.1,0,0.1,0.1,0.2c0,0,0.1,0.1,0.2,0.1h0.5v0.7h-0.6c-0.3,0-0.5-0.1-0.7-0.3c-0.1-0.2-0.2-0.4-0.2-0.7v-2h-0.7v-0.7h0.7v-0.8
	L16,11.3z M19.1,12.4c0.5,0,1,0.2,1.3,0.5c0.3,0.4,0.5,0.8,0.5,1.4c0,0.6-0.2,1-0.5,1.4c-0.3,0.4-0.8,0.5-1.3,0.5
	c-0.6,0-1-0.2-1.3-0.5c-0.3-0.4-0.5-0.8-0.5-1.4c0-0.6,0.2-1,0.5-1.4C18.1,12.6,18.5,12.4,19.1,12.4z M19.1,13.1
	c-0.3,0-0.6,0.1-0.8,0.4c-0.2,0.2-0.2,0.5-0.2,0.9c0,0.3,0.1,0.6,0.2,0.9c0.2,0.3,0.4,0.4,0.8,0.4c0.3,0,0.6-0.1,0.8-0.4
	c0.2-0.2,0.2-0.5,0.2-0.9c0-0.4-0.1-0.6-0.2-0.9C19.7,13.2,19.4,13.1,19.1,13.1z M23.5,12.4c0.9,0,1.4,0.5,1.4,1.5v2.2H24V14
	c0-0.6-0.3-0.9-0.8-0.9c-0.2,0-0.4,0.1-0.5,0.2c-0.2,0.2-0.3,0.4-0.3,0.7v2.2h-0.8v-3.6h0.8v0.4c0.1-0.2,0.3-0.3,0.5-0.4
	C23.1,12.5,23.3,12.4,23.5,12.4z"/>
</svg>
