<?xml version="1.0" encoding="utf-8"?>
<!-- Generator: Adobe Illustrator 23.0.1, SVG Export Plug-In . SVG Version: 6.00 Build 0)  -->
<svg version="1.1" id="图层_1" xmlns="http://www.w3.org/2000/svg" xmlns:xlink="http://www.w3.org/1999/xlink" x="0px" y="0px"
	 viewBox="0 0 25 25" style="enable-background:new 0 0 25 25;" xml:space="preserve">
<style type="text/css">
	.st0{fill:#FFFFFF;}
	.st1{fill:#2D303B;}
</style>
<path id="矩形" class="st0" d="M4.5,2h16c1.7,0,3,1.3,3,3v15c0,1.7-1.3,3-3,3h-16c-1.7,0-3-1.3-3-3V5C1.5,3.3,2.8,2,4.5,2z"/>
<path id="合并形状" class="st1" d="M11.8,21l0.1-9.5l-8.4,0V20c0,0.6,0.4,1,1,1H11.8z M13.8,21h6.7c0.6,0,1-0.4,1-1v-8.4l-7.6,0
	L13.8,21z M3.5,9.5l18,0.1V5c0-0.6-0.4-1-1-1h-16c-0.6,0-1,0.4-1,1V9.5z M4.5,2h16c1.7,0,3,1.3,3,3v15c0,1.7-1.3,3-3,3h-16
	c-1.7,0-3-1.3-3-3V5C1.5,3.3,2.8,2,4.5,2z"/>
</svg>
