<?xml version="1.0" encoding="utf-8"?>
<!-- Generator: Adobe Illustrator 23.0.1, SVG Export Plug-In . SVG Version: 6.00 Build 0)  -->
<svg version="1.1" id="图层_1" xmlns="http://www.w3.org/2000/svg" xmlns:xlink="http://www.w3.org/1999/xlink" x="0px" y="0px"
	 viewBox="0 0 25 25.5" style="enable-background:new 0 0 25 25.5;" xml:space="preserve">
<style type="text/css">
	.st0{fill-rule:evenodd;clip-rule:evenodd;fill:#FFFFFF;}
	.st1{fill:#2D303B;}
</style>
<polygon id="路径-2" class="st0" points="2.6,1.3 2.6,24.3 17.6,24.3 22.5,19.3 22.5,1.3 "/>
<path id="合并形状" class="st1" d="M18.4,21.9l2.2-2.2h-2.2V21.9z M21.8,17.7V2L3.3,2v21.4h13.1v-5.8H21.8z M3.3,0l18.5,0
	c1.1,0,2,0.9,2,2l0,17.4l-6.2,6.1H3.3c-1.1,0-2-0.9-2-2V2C1.3,0.9,2.2,0,3.3,0z M6.2,9V7h12.6v2H6.2z M6.2,15v-2h12.6v2H6.2z"/>
</svg>
