<?xml version="1.0" encoding="utf-8"?>
<!-- Generator: Adobe Illustrator 23.0.1, SVG Export Plug-In . SVG Version: 6.00 Build 0)  -->
<svg version="1.1" id="图层_1" xmlns="http://www.w3.org/2000/svg" xmlns:xlink="http://www.w3.org/1999/xlink" x="0px" y="0px"
	 viewBox="0 0 28 28" style="enable-background:new 0 0 28 28;" xml:space="preserve">
<style type="text/css">
	.st0{fill:#EFF2FA;}
	.st1{fill:#2D303B;}
	.st2{fill-rule:evenodd;clip-rule:evenodd;fill:#FFFFFF;}
</style>
<path id="路径" class="st0" d="M4.7,5c-0.6,0-1,0.4-1,1v15.8c0,0.6,0.4,1,1,1h18.8c0.6,0,1-0.4,1-1V6c0-0.6-0.4-1-1-1H4.7z"/>
<path id="矩形" class="st1" d="M5,5.5c-0.6,0-1,0.4-1,1v15c0,0.6,0.4,1,1,1h18c0.6,0,1-0.4,1-1v-15c0-0.6-0.4-1-1-1H5z M5,4.5h18
	c1.1,0,2,0.9,2,2v15c0,1.1-0.9,2-2,2H5c-1.1,0-2-0.9-2-2v-15C3,5.4,3.9,4.5,5,4.5z"/>
<rect x="4" y="8.5" class="st2" width="20" height="11"/>
</svg>
