<?xml version="1.0" encoding="utf-8"?>
<!-- Generator: Adobe Illustrator 23.0.1, SVG Export Plug-In . SVG Version: 6.00 Build 0)  -->
<svg version="1.1" id="图层_1" xmlns="http://www.w3.org/2000/svg" xmlns:xlink="http://www.w3.org/1999/xlink" x="0px" y="0px"
	 viewBox="0 0 16 16" style="enable-background:new 0 0 16 16;" xml:space="preserve">
<style type="text/css">
	.st0{opacity:0.25;fill-rule:evenodd;clip-rule:evenodd;fill:#2D303B;enable-background:new    ;}
</style>
<path id="Shape" class="st0" d="M3,4C2.5,4,2,4.4,2,5s0.5,1,1,1s1-0.4,1-1S3.5,4,3,4z M13,4c-0.6,0-1,0.4-1,1s0.4,1,1,1s1-0.4,1-1
	S13.6,4,13,4z M8,4C7.4,4,7,4.4,7,5s0.4,1,1,1s1-0.4,1-1S8.6,4,8,4z"/>
<path id="Shape-Copy" class="st0" d="M3,10c-0.5,0-1,0.4-1,1s0.5,1,1,1s1-0.4,1-1S3.5,10,3,10z M13,10c-0.6,0-1,0.4-1,1s0.4,1,1,1
	s1-0.4,1-1S13.6,10,13,10z M8,10c-0.6,0-1,0.4-1,1s0.4,1,1,1s1-0.4,1-1S8.6,10,8,10z"/>
</svg>
