<?xml version="1.0" encoding="utf-8"?>
<!-- Generator: Adobe Illustrator 23.0.1, SVG Export Plug-In . SVG Version: 6.00 Build 0)  -->
<svg version="1.1" id="图层_1" xmlns="http://www.w3.org/2000/svg" xmlns:xlink="http://www.w3.org/1999/xlink" x="0px" y="0px"
	 viewBox="0 0 28 28" style="enable-background:new 0 0 28 28;" xml:space="preserve">
<style type="text/css">
	.st0{fill:#EFF2FA;}
	.st1{fill:none;}
	.st2{fill:#5D81F9;}
	.st3{fill:#404040;}
	.st4{fill:#2D303B;}
</style>
<polygon class="st0" points="13,21 9,16.2 4.1,20.6 4,20.6 3.5,21.5 4.3,22.8 14.7,23.2 24.1,22.5 24.6,20.6 24.3,19.4 18.9,14.6 
	"/>
<path class="st1" d="M4.8,5.2c-0.6,0-1,0.4-1,1v15.7c0,0.6,0.4,1,1,1h18.5c0.6,0,1-0.4,1-1V6.2c0-0.6-0.4-1-1-1H4.8z"/>
<polygon class="st2" points="3.5,21.5 4.4,20.9 4.5,20.8 8.9,16.9 13,21.5 19,15 23.8,19.8 24.6,20.6 24.6,20.2 24.6,18.9 
	24.6,18.9 19,13.5 13.7,19.2 13.6,19.3 13,20 12.4,19.3 9,15.5 3.9,20 3.4,20.4 "/>
<path id="路径" class="st0" d="M10.5,12.9c0.8,0,1.8-1,1.8-1.9s-1-1.8-1.8-1.8s-1.9,1-1.9,1.8S9.7,12.9,10.5,12.9z"/>
<path id="椭圆形" class="st2" d="M10.5,12.5c0.8,0,1.5-0.7,1.5-1.5s-0.7-1.5-1.5-1.5S9,10.2,9,11S9.7,12.5,10.5,12.5z M10.5,13.5
	C9.1,13.5,8,12.4,8,11s1.1-2.5,2.5-2.5S13,9.6,13,11S11.9,13.5,10.5,13.5z"/>
<path class="st3" d="M5,5.5c-0.6,0-1,0.4-1,1v15c0,0.6,0.4,1,1,1h18c0.6,0,1-0.4,1-1v-15c0-0.6-0.4-1-1-1H5z M5,4.5h18
	c1.1,0,2,0.9,2,2v15c0,1.1-0.9,2-2,2H5c-1.1,0-2-0.9-2-2v-15C3,5.4,3.9,4.5,5,4.5z"/>
<path class="st4" d="M5,5.5c-0.6,0-1,0.4-1,1v15c0,0.6,0.4,1,1,1h18c0.6,0,1-0.4,1-1v-15c0-0.6-0.4-1-1-1H5z M5,4.5h18
	c1.1,0,2,0.9,2,2v15c0,1.1-0.9,2-2,2H5c-1.1,0-2-0.9-2-2v-15C3,5.4,3.9,4.5,5,4.5z"/>
</svg>
