<?xml version="1.0" standalone="no"?><!DOCTYPE svg PUBLIC "-//W3C//DTD SVG 1.1//EN" "http://www.w3.org/Graphics/SVG/1.1/DTD/svg11.dtd"><svg t="1572959747625" class="icon" viewBox="0 0 3132 1024" version="1.1" xmlns="http://www.w3.org/2000/svg" p-id="7141" xmlns:xlink="http://www.w3.org/1999/xlink" width="611.71875" height="200"><defs><style type="text/css"></style></defs><path d="M0 0h3132.235294v1024H0z" fill="#F5F6F9" p-id="7142"></path><path d="M1198.682353 174.682353m-90.352941 0a90.352941 90.352941 0 1 0 180.705882 0 90.352941 90.352941 0 1 0-180.705882 0Z" fill="#EBEDF1" p-id="7143"></path><path d="M0 843.294118l777.035294-674.635294 896.301177 686.682352 505.97647-493.929411 945.694118 650.541176H0z" fill="#EBEDF1" p-id="7144"></path><path d="M891.482353 344.545882v344.545883h242.145882v-48.188236H946.898824V344.545882H891.482353z m438.512941-7.228235c-53.007059 0-93.967059 16.865882-124.084706 51.802353-28.912941 32.527059-43.369412 74.691765-43.369412 127.698824 0 51.802353 14.456471 93.967059 43.369412 127.698823 30.117647 33.731765 71.077647 50.597647 124.084706 50.597647s93.967059-16.865882 124.084706-50.597647c28.912941-32.527059 43.369412-74.691765 43.369412-127.698823s-14.456471-96.376471-43.369412-127.698824c-30.117647-34.936471-72.282353-51.802353-124.084706-51.802353z m0 49.392941c36.141176 0 62.644706 10.842353 81.92 33.731765 19.275294 22.889412 28.912941 55.416471 28.912941 95.171765s-9.637647 72.282353-28.912941 93.967058c-19.275294 22.889412-46.983529 33.731765-81.92 33.731765s-63.849412-12.047059-83.124706-36.141176c-19.275294-22.889412-27.708235-54.211765-27.708235-92.762353 0-39.755294 9.637647-69.872941 27.708235-93.967059 19.275294-21.684706 46.983529-33.731765 83.124706-33.731765z m369.844706-49.392941c-50.597647 0-91.557647 16.865882-121.675294 53.007059-28.912941 33.731765-42.164706 75.896471-42.164706 127.698823 0 50.597647 14.456471 92.762353 42.164706 125.289412 30.117647 34.936471 72.282353 51.802353 127.698823 51.802353 31.322353 0 57.825882-3.614118 83.124706-12.047059 24.094118-7.228235 44.574118-18.070588 62.644706-32.527059V504.771765h-146.974117v48.188235h91.557647v71.077647c-12.047059 7.228235-24.094118 12.047059-37.345883 15.661177-14.456471 3.614118-30.117647 6.023529-45.778823 6.023529-42.164706 0-72.282353-12.047059-92.762353-34.936471-18.070588-21.684706-27.708235-53.007059-27.708236-93.967058 0-40.96 9.637647-72.282353 28.912942-95.171765l2.409411-2.409412c19.275294-21.684706 44.574118-32.527059 77.101177-32.527059 26.503529 0 46.983529 4.818824 62.644706 16.865883 15.661176 10.842353 26.503529 27.708235 31.322353 49.392941h56.621176c-6.023529-38.550588-21.684706-67.463529-45.778823-86.738824-27.708235-19.275294-61.44-28.912941-106.014118-28.912941z m367.435294 0c-53.007059 0-93.967059 16.865882-124.084706 51.802353-28.912941 32.527059-43.369412 74.691765-43.369412 127.698824 0 51.802353 14.456471 93.967059 43.369412 127.698823 30.117647 33.731765 71.077647 50.597647 124.084706 50.597647s93.967059-16.865882 124.084706-50.597647c28.912941-32.527059 43.369412-74.691765 43.369412-127.698823s-14.456471-96.376471-43.369412-127.698824c-30.117647-34.936471-71.077647-51.802353-124.084706-51.802353z m0 49.392941c36.141176 0 62.644706 10.842353 81.92 33.731765 19.275294 22.889412 28.912941 55.416471 28.912941 95.171765s-9.637647 72.282353-28.912941 93.967058c-19.275294 22.889412-46.983529 33.731765-81.92 33.731765-36.141176 0-63.849412-12.047059-83.124706-36.141176-19.275294-22.889412-27.708235-54.211765-27.708235-92.762353 0-39.755294 9.637647-69.872941 27.708235-93.967059 20.48-21.684706 46.983529-33.731765 83.124706-33.731765z" opacity=".1" p-id="7145"></path></svg>