<?xml version="1.0" encoding="utf-8"?>
<!-- Generator: Adobe Illustrator 23.0.1, SVG Export Plug-In . SVG Version: 6.00 Build 0)  -->
<svg version="1.1" id="图层_1" xmlns="http://www.w3.org/2000/svg" xmlns:xlink="http://www.w3.org/1999/xlink" x="0px" y="0px"
	 viewBox="0 0 16 16" style="enable-background:new 0 0 16 16;" xml:space="preserve">
<style type="text/css">
	.st0{opacity:0;fill:#FFFFFF;}
	.st1{opacity:0.4;fill-rule:evenodd;clip-rule:evenodd;fill:#2D303B;enable-background:new    ;}
</style>
<rect class="st0" width="16" height="16"/>
<path id="Shape" class="st1" d="M3,7C2.5,7,2,7.4,2,8c0,0.6,0.5,1,1,1s1-0.4,1-1S3.5,7,3,7z M13,7c-0.6,0-1,0.4-1,1c0,0.6,0.4,1,1,1
	s1-0.4,1-1S13.6,7,13,7z M8,7C7.4,7,7,7.4,7,8c0,0.6,0.4,1,1,1s1-0.4,1-1S8.6,7,8,7z"/>
</svg>
